<?xml version="1.0" encoding="utf-8"?>
<svg xmlns="http://www.w3.org/2000/svg"
	xmlns:xlink="http://www.w3.org/1999/xlink"
	width="36px" height="55px" viewBox="0 0 36 55">
<path fillRule="evenodd" d="M 33.13 27.84C 34.93 30.69 35.83 33.82 35.83 37.25 35.83 42.08 34.09 46.23 30.61 49.7 27.14 53.17 22.98 54.9 18.14 54.9 13.3 54.9 9.15 53.17 5.67 49.7 2.2 46.23 0.46 42.08 0.46 37.25 0.46 33.82 1.36 30.69 3.16 27.84 4.95 25 7.33 22.88 10.3 21.47 7.02 13.6 5.38 8.97 5.38 7.56 5.38 7.56 5.38-0.03 5.38-0.03 5.38-0.03 30.91-0.03 30.91-0.03 30.91-0.03 30.91 7.56 30.91 7.56 30.91 8.66 29.27 13.29 25.99 21.47 28.95 22.88 31.34 25 33.13 27.84ZM 12.06 20.65C 14.08 19.95 16.11 19.6 18.14 19.6 20.25 19.6 22.24 19.95 24.12 20.65 27.32 13.17 28.92 8.81 28.92 7.56 28.92 7.56 28.92 1.95 28.92 1.95 28.92 1.95 19.08 1.95 19.08 1.95 19.08 1.95 19.08 15.39 19.08 15.39 19.08 15.39 17.09 15.39 17.09 15.39 17.09 15.39 17.09 1.95 17.09 1.95 17.09 1.95 7.37 1.95 7.37 1.95 7.37 1.95 7.37 7.56 7.37 7.56 7.37 8.58 8.93 12.94 12.06 20.65 12.06 20.65 12.06 20.65 12.06 20.65ZM 33.83 37.25C 33.83 32.89 32.29 29.19 29.21 26.15 26.12 23.11 22.44 21.59 18.14 21.59 13.85 21.59 10.16 23.11 7.08 26.15 3.99 29.19 2.45 32.89 2.45 37.25 2.45 41.62 3.99 45.32 7.08 48.36 10.16 51.39 13.85 52.91 18.14 52.91 22.44 52.91 26.12 51.39 29.21 48.36 32.29 45.32 33.83 41.62 33.83 37.25ZM 29.97 37.25C 29.97 40.52 28.82 43.31 26.52 45.61 24.21 47.91 21.42 49.06 18.14 49.06 14.87 49.06 12.07 47.91 9.77 45.61 7.47 43.31 6.32 40.52 6.32 37.25 6.32 33.98 7.47 31.19 9.77 28.89 12.07 26.6 14.87 25.45 18.14 25.45 21.42 25.45 24.21 26.6 26.52 28.89 28.82 31.19 29.97 33.98 29.97 37.25ZM 27.98 37.25C 27.98 34.6 27.02 32.3 25.11 30.36 23.2 28.41 20.88 27.43 18.14 27.43 15.41 27.43 13.09 28.41 11.18 30.36 9.26 32.3 8.31 34.6 8.31 37.25 8.31 39.9 9.26 42.2 11.18 44.15 13.09 46.1 15.41 47.07 18.14 47.07 20.88 47.07 23.2 46.1 25.11 44.15 27.02 42.2 27.98 39.9 27.98 37.25Z" fill="rgb(55,197,148)"/></svg>