<?xml version="1.0" encoding="utf-8"?>
<svg xmlns="http://www.w3.org/2000/svg"
	xmlns:xlink="http://www.w3.org/1999/xlink"
	width="49px" height="49px" viewBox="0 0 49 49">
<path fillRule="evenodd" d="M 48.21 0.47C 48.21 0.47 48.21 48.39 48.21 48.39 48.21 48.39 0.26 48.39 0.26 48.39 0.26 48.39 0.26 0.47 0.26 0.47 0.26 0.47 48.21 0.47 48.21 0.47ZM 2.24 2.46C 2.24 2.46 2.24 11.46 2.24 11.46 2.24 11.46 46.22 11.46 46.22 11.46 46.22 11.46 46.22 2.46 46.22 2.46 46.22 2.46 2.24 2.46 2.24 2.46ZM 46.22 46.41C 46.22 46.41 46.22 13.45 46.22 13.45 46.22 13.45 2.24 13.45 2.24 13.45 2.24 13.45 2.24 46.41 2.24 46.41 2.24 46.41 46.22 46.41 46.22 46.41ZM 15.23 8.54C 15.23 8.54 18.27 8.54 18.27 8.54 18.27 8.54 18.27 5.5 18.27 5.5 18.27 5.5 15.23 5.5 15.23 5.5 15.23 5.5 15.23 8.54 15.23 8.54ZM 30.2 8.54C 30.2 8.54 33.24 8.54 33.24 8.54 33.24 8.54 33.24 5.5 33.24 5.5 33.24 5.5 30.2 5.5 30.2 5.5 30.2 5.5 30.2 8.54 30.2 8.54ZM 17.45 20.23C 17.45 20.23 19.2 20.23 19.2 20.23 19.2 20.23 19.2 35.89 19.2 35.89 19.2 35.89 17.1 35.89 17.1 35.89 17.1 35.89 17.1 24.78 17.1 24.78 17.1 24.78 13.24 24.78 13.24 24.78 13.24 24.78 13.24 23.15 13.24 23.15 13.24 23.15 13.59 23.15 13.59 23.15 14.6 23.07 15.28 23.01 15.63 22.97 15.99 22.93 16.35 22.72 16.75 22.33 17.13 21.94 17.37 21.36 17.45 20.58 17.45 20.58 17.45 20.23 17.45 20.23ZM 33.06 26.77C 34.03 27.78 34.52 29.11 34.52 30.75 34.52 32.3 33.98 33.61 32.89 34.66 31.79 35.71 30.51 36.24 29.03 36.24 27.47 36.24 26.2 35.77 25.22 34.84 24.25 33.9 23.76 32.69 23.76 31.21 23.76 31.21 23.76 30.86 23.76 30.86 23.76 30.86 25.87 30.86 25.87 30.86 25.87 30.86 25.87 31.21 25.87 31.21 25.87 32.15 26.18 32.91 26.8 33.49 27.43 34.08 28.21 34.37 29.14 34.37 30.16 34.37 30.96 34 31.54 33.26 32.13 32.52 32.42 31.64 32.42 30.63 32.42 29.62 32.11 28.78 31.48 28.12 30.86 27.45 30.04 27.12 29.03 27.12 27.7 27.12 26.69 27.67 25.99 28.76 25.99 28.76 25.87 28.87 25.87 28.87 25.87 28.87 24.11 28.87 24.11 28.87 24.11 28.87 25.75 20.46 25.75 20.46 25.75 20.46 33.82 20.46 33.82 20.46 33.82 20.46 33.82 22.45 33.82 22.45 33.82 22.45 27.27 22.45 27.27 22.45 27.27 22.45 26.57 26.07 26.57 26.07 27.35 25.53 28.21 25.25 29.14 25.25 30.78 25.25 32.08 25.76 33.06 26.77Z" fill="rgb(251,95,69)"/></svg>