<?xml version="1.0" encoding="utf-8"?>
<svg xmlns="http://www.w3.org/2000/svg"
	xmlns:xlink="http://www.w3.org/1999/xlink"
	width="53px" height="47px" viewBox="0 0 53 47">
<path fillRule="evenodd" d="M 27.31 35.94C 27.31 35.94 27.31 39.8 27.31 39.8 27.31 39.8 36.68 45.06 36.68 45.06 36.68 45.06 35.74 46.81 35.74 46.81 35.74 46.81 26.26 41.55 26.26 41.55 26.26 41.55 16.77 46.81 16.77 46.81 16.77 46.81 15.84 45.06 15.84 45.06 15.84 45.06 25.2 39.8 25.2 39.8 25.2 39.8 25.2 35.94 25.2 35.94 25.2 35.94 0.27 35.94 0.27 35.94 0.27 35.94 0.27 0.06 0.27 0.06 0.27 0.06 52.25 0.06 52.25 0.06 52.25 0.06 52.25 35.94 52.25 35.94 52.25 35.94 27.31 35.94 27.31 35.94ZM 2.26 33.95C 2.26 33.95 50.26 33.95 50.26 33.95 50.26 33.95 50.26 2.04 50.26 2.04 50.26 2.04 2.26 2.04 2.26 2.04 2.26 2.04 2.26 33.95 2.26 33.95ZM 29.3 7.77C 29.3 7.77 31.18 8.36 31.18 8.36 31.18 8.36 25.67 26.82 25.67 26.82 25.67 26.82 19.23 17.94 19.23 17.94 19.23 17.94 15.02 26.24 15.02 26.24 15.02 26.24 9.4 14.78 9.4 14.78 9.4 14.78 6.24 26.47 6.24 26.47 6.24 26.47 4.25 26.01 4.25 26.01 4.25 26.01 8.81 9.29 8.81 9.29 8.81 9.29 15.02 21.8 15.02 21.8 15.02 21.8 19 14.08 19 14.08 19 14.08 24.97 22.38 24.97 22.38 24.97 22.38 29.3 7.77 29.3 7.77ZM 44.52 13.73C 45.69 14.9 46.28 16.34 46.28 18.06 46.28 19.69 45.69 21.1 44.52 22.26 43.35 23.43 41.91 24.02 40.19 24.02 38.55 24.02 37.15 23.43 35.98 22.26 34.81 21.1 34.22 19.69 34.22 18.06 34.22 16.34 34.81 14.9 35.98 13.73 37.15 12.56 38.55 11.98 40.19 11.98 41.91 11.98 43.35 12.56 44.52 13.73ZM 43.06 20.86C 43.88 20.08 44.29 19.15 44.29 18.06 44.29 16.97 43.88 16.03 43.06 15.25 42.24 14.47 41.28 14.08 40.19 14.08 39.1 14.08 38.16 14.47 37.38 15.25 36.6 16.03 36.21 16.97 36.21 18.06 36.21 19.15 36.62 20.08 37.44 20.86 38.26 21.64 39.18 22.03 40.19 22.03 41.28 22.03 42.24 21.64 43.06 20.86Z" fill="rgb(253,184,95)"/></svg>