<?xml version="1.0" encoding="utf-8"?>
<svg xmlns="http://www.w3.org/2000/svg"
	xmlns:xlink="http://www.w3.org/1999/xlink"
	width="49px" height="49px" viewBox="0 0 49 49">
<path fillRule="evenodd" d="M 48.26 0.01C 48.26 0.01 48.26 48.05 48.26 48.05 48.26 48.05 0.26 48.05 0.26 48.05 0.26 48.05 0.26 0.01 0.26 0.01 0.26 0.01 48.26 0.01 48.26 0.01ZM 2.25 2C 2.25 2 2.25 39.38 2.25 39.38 2.25 39.38 8.1 32.58 8.1 32.58 8.1 32.58 14.07 36.56 14.07 36.56 14.07 36.56 24.02 22.5 24.02 22.5 24.02 22.5 33.04 29.65 33.04 29.65 33.04 29.65 46.27 10.67 46.27 10.67 46.27 10.67 46.27 2 46.27 2 46.27 2 2.25 2 2.25 2ZM 46.27 46.05C 46.27 46.05 46.27 14.19 46.27 14.19 46.27 14.19 33.51 32.58 33.51 32.58 33.51 32.58 24.49 25.43 24.49 25.43 24.49 25.43 14.54 39.26 14.54 39.26 14.54 39.26 8.45 35.28 8.45 35.28 8.45 35.28 2.25 42.42 2.25 42.42 2.25 42.42 2.25 46.05 2.25 46.05 2.25 46.05 46.27 46.05 46.27 46.05Z" fill="rgb(251,95,69)"/></svg>