<?xml version="1.0" encoding="utf-8"?>
<svg xmlns="http://www.w3.org/2000/svg"
	xmlns:xlink="http://www.w3.org/1999/xlink"
	width="49px" height="49px" viewBox="0 0 49 49">
<path fillRule="evenodd" d="M 0.26 28.01C 0.26 28.01 20.28 28.01 20.28 28.01 20.28 28.01 20.28 48.05 20.28 48.05 20.28 48.05 0.26 48.05 0.26 48.05 0.26 48.05 0.26 28.01 0.26 28.01ZM 2.25 46.05C 2.25 46.05 18.29 46.05 18.29 46.05 18.29 46.05 18.29 30 18.29 30 18.29 30 2.25 30 2.25 30 2.25 30 2.25 46.05 2.25 46.05ZM 38.2 11.49C 38.2 11.49 23.56 26.25 23.56 26.25 23.56 26.25 22.15 24.85 22.15 24.85 22.15 24.85 36.91 10.08 36.91 10.08 36.91 10.08 24.26 10.08 24.26 10.08 24.26 10.08 24.26 8.09 24.26 8.09 24.26 8.09 40.19 8.09 40.19 8.09 40.19 8.09 40.19 24.03 40.19 24.03 40.19 24.03 38.2 24.03 38.2 24.03 38.2 24.03 38.2 11.49 38.2 11.49ZM 48.27 0.01C 48.27 0.01 48.27 48.05 48.27 48.05 48.27 48.05 24.26 48.05 24.26 48.05 24.26 48.05 24.26 46.05 24.26 46.05 24.26 46.05 46.27 46.05 46.27 46.05 46.27 46.05 46.27 2 46.27 2 46.27 2 2.25 2 2.25 2 2.25 2 2.25 24.03 2.25 24.03 2.25 24.03 0.26 24.03 0.26 24.03 0.26 24.03 0.26 0.01 0.26 0.01 0.26 0.01 48.27 0.01 48.27 0.01Z" fill="rgb(177,123,244)"/></svg>