<?xml version="1.0" encoding="utf-8"?>
<svg xmlns="http://www.w3.org/2000/svg"
	xmlns:xlink="http://www.w3.org/1999/xlink"
	width="47px" height="49px" viewBox="0 0 47 49">
<path fillRule="evenodd" d="M 45.04 8.27C 44.3 9.17 43.35 9.73 42.18 9.97 42.18 9.97 42.18 44.06 42.18 44.06 42.18 44.06 40.19 44.06 40.19 44.06 40.19 44.06 40.19 9.97 40.19 9.97 39.02 9.73 38.06 9.15 37.32 8.21 36.58 7.27 36.21 6.22 36.21 5.05 36.21 3.64 36.7 2.45 37.67 1.47 38.65 0.5 39.84 0.01 41.24 0.01 42.57 0.01 43.72 0.5 44.69 1.47 45.67 2.45 46.15 3.64 46.15 5.05 46.15 6.3 45.78 7.37 45.04 8.27ZM 43.29 7.21C 43.87 6.63 44.17 5.91 44.17 5.05 44.17 4.19 43.87 3.46 43.29 2.88 42.7 2.29 42.02 2 41.24 2 40.38 2 39.66 2.29 39.08 2.88 38.49 3.46 38.2 4.19 38.2 5.05 38.2 5.91 38.49 6.63 39.08 7.21 39.66 7.8 40.38 8.09 41.24 8.09 42.02 8.09 42.7 7.8 43.29 7.21ZM 9.14 39.84C 9.88 40.78 10.25 41.84 10.25 43.01 10.25 44.41 9.76 45.61 8.79 46.58 7.81 47.56 6.62 48.05 5.22 48.05 3.89 48.05 2.74 47.56 1.77 46.58 0.79 45.61 0.31 44.41 0.31 43.01 0.31 41.76 0.68 40.68 1.42 39.79 2.16 38.89 3.11 38.32 4.28 38.09 4.28 38.09 4.28 3.99 4.28 3.99 4.28 3.99 6.27 3.99 6.27 3.99 6.27 3.99 6.27 38.09 6.27 38.09 7.44 38.32 8.4 38.91 9.14 39.84ZM 7.38 45.18C 7.97 44.59 8.26 43.87 8.26 43.01 8.26 42.15 7.97 41.43 7.38 40.84 6.8 40.25 6.08 39.96 5.22 39.96 4.44 39.96 3.76 40.25 3.17 40.84 2.59 41.43 2.3 42.15 2.3 43.01 2.3 43.87 2.59 44.59 3.17 45.18 3.76 45.76 4.44 46.05 5.22 46.05 6.08 46.05 6.8 45.76 7.38 45.18ZM 27.15 20.86C 27.89 21.8 28.26 22.86 28.26 24.03 28.26 25.2 27.89 26.25 27.15 27.19 26.41 28.13 25.45 28.71 24.28 28.95 24.28 28.95 24.28 44.06 24.28 44.06 24.28 44.06 22.18 44.06 22.18 44.06 22.18 44.06 22.18 28.95 22.18 28.95 21.01 28.71 20.05 28.13 19.31 27.19 18.57 26.25 18.2 25.2 18.2 24.03 18.2 22.86 18.57 21.8 19.31 20.86 20.05 19.93 21.01 19.34 22.18 19.11 22.18 19.11 22.18 3.99 22.18 3.99 22.18 3.99 24.28 3.99 24.28 3.99 24.28 3.99 24.28 19.11 24.28 19.11 25.45 19.34 26.41 19.93 27.15 20.86ZM 26.27 24.03C 26.27 23.25 25.96 22.54 25.34 21.92 24.71 21.29 24.01 20.98 23.23 20.98 22.45 20.98 21.75 21.29 21.13 21.92 20.5 22.54 20.19 23.25 20.19 24.03 20.19 24.81 20.5 25.51 21.13 26.14 21.75 26.76 22.45 27.07 23.23 27.07 24.01 27.07 24.71 26.76 25.34 26.14 25.96 25.51 26.27 24.81 26.27 24.03Z" fill="rgb(55,197,148)"/></svg>