<?xml version="1.0" encoding="utf-8"?>
<svg xmlns="http://www.w3.org/2000/svg"
	xmlns:xlink="http://www.w3.org/1999/xlink"
	width="51px" height="46px" viewBox="0 0 51 46">
<path fillRule="evenodd" d="M 50.49 18.31C 50.49 18.31 48.53 18.31 48.53 18.31 48.53 18.31 48.53 45.29 48.53 45.29 48.53 45.29 2.4 45.29 2.4 45.29 2.4 45.29 2.4 18.31 2.4 18.31 2.4 18.31 0.45 18.31 0.45 18.31 0.45 18.31 0.45 10.56 0.45 10.56 0.45 10.56 16.38 10.56 16.38 10.56 15.4 9.45 14.91 8.17 14.91 6.73 14.91 5.1 15.47 3.72 16.57 2.61 17.68 1.5 19.05 0.94 20.68 0.94 22.83 0.94 24.43 1.76 25.47 3.4 26.51 1.76 28.11 0.94 30.26 0.94 31.89 0.94 33.25 1.5 34.36 2.61 35.47 3.72 36.02 5.1 36.02 6.73 36.02 8.17 35.54 9.45 34.56 10.56 34.56 10.56 50.49 10.56 50.49 10.56 50.49 10.56 50.49 18.31 50.49 18.31ZM 27.57 3.98C 26.82 4.77 26.45 5.69 26.45 6.73 26.45 6.73 26.45 10.56 26.45 10.56 26.45 10.56 30.26 10.56 30.26 10.56 31.3 10.56 32.21 10.18 32.99 9.43 33.78 8.68 34.17 7.78 34.17 6.73 34.17 5.62 33.79 4.69 33.04 3.93 32.29 3.18 31.36 2.81 30.26 2.81 29.21 2.81 28.32 3.2 27.57 3.98ZM 17.94 9.43C 18.72 10.18 19.64 10.56 20.68 10.56 20.68 10.56 24.49 10.56 24.49 10.56 24.49 10.56 24.49 6.73 24.49 6.73 24.49 5.69 24.12 4.77 23.37 3.98 22.62 3.2 21.72 2.81 20.68 2.81 19.57 2.81 18.64 3.18 17.89 3.93 17.14 4.69 16.77 5.62 16.77 6.73 16.77 7.78 17.16 8.68 17.94 9.43ZM 2.4 16.35C 2.4 16.35 24.49 16.35 24.49 16.35 24.49 16.35 24.49 12.52 24.49 12.52 24.49 12.52 2.4 12.52 2.4 12.52 2.4 12.52 2.4 16.35 2.4 16.35ZM 4.26 43.42C 4.26 43.42 24.49 43.42 24.49 43.42 24.49 43.42 24.49 18.31 24.49 18.31 24.49 18.31 4.26 18.31 4.26 18.31 4.26 18.31 4.26 43.42 4.26 43.42ZM 46.68 18.31C 46.68 18.31 26.45 18.31 26.45 18.31 26.45 18.31 26.45 43.42 26.45 43.42 26.45 43.42 46.68 43.42 46.68 43.42 46.68 43.42 46.68 18.31 46.68 18.31ZM 48.53 12.52C 48.53 12.52 26.45 12.52 26.45 12.52 26.45 12.52 26.45 16.35 26.45 16.35 26.45 16.35 48.53 16.35 48.53 16.35 48.53 16.35 48.53 12.52 48.53 12.52Z" fill="rgb(253,184,95)"/></svg>