<?xml version="1.0" encoding="utf-8"?>
<svg xmlns="http://www.w3.org/2000/svg"
	xmlns:xlink="http://www.w3.org/1999/xlink"
	width="47px" height="51px" viewBox="0 0 47 51">
<path fillRule="evenodd" d="M 7.7 29.97C 4.21 33.49 2.46 37.73 2.46 42.68 2.46 42.68 2.46 46.69 2.46 46.69 2.46 46.69 24.48 46.69 24.48 46.69 24.48 46.69 24.48 48.65 24.48 48.65 24.48 48.65 0.41 48.65 0.41 48.65 0.41 48.65 0.41 42.68 0.41 42.68 0.41 38.12 1.78 34.05 4.52 30.46 7.26 26.88 10.72 24.53 14.89 23.42 12.93 22.38 11.33 20.91 10.1 19.02 8.86 17.13 8.24 15.01 8.24 12.66 8.24 9.34 9.43 6.5 11.81 4.16 14.19 1.81 17.01 0.64 20.27 0.64 23.6 0.64 26.44 1.81 28.79 4.16 31.13 6.5 32.31 9.34 32.31 12.66 32.31 15.01 31.7 17.15 30.5 19.07 29.29 20.99 27.68 22.44 25.65 23.42 29.05 24.27 32.08 26.03 34.75 28.7 34.75 28.7 31.72 28.7 31.72 28.7 28.39 26.03 24.64 24.69 20.47 24.69 15.44 24.69 11.19 26.45 7.7 29.97ZM 20.47 22.64C 23.27 22.64 25.65 21.68 27.61 19.75 29.57 17.83 30.55 15.47 30.55 12.66 30.55 9.86 29.57 7.5 27.61 5.58 25.65 3.65 23.27 2.69 20.47 2.69 17.66 2.69 15.3 3.65 13.37 5.58 11.45 7.5 10.49 9.86 10.49 12.66 10.49 15.47 11.45 17.83 13.37 19.75 15.3 21.68 17.66 22.64 20.47 22.64ZM 46.59 44.74C 46.59 44.74 40.53 44.74 40.53 44.74 40.53 44.74 40.53 50.7 40.53 50.7 40.53 50.7 38.57 50.7 38.57 50.7 38.57 50.7 38.57 44.74 38.57 44.74 38.57 44.74 32.5 44.74 32.5 44.74 32.5 44.74 32.5 42.68 32.5 42.68 32.5 42.68 38.57 42.68 38.57 42.68 38.57 42.68 38.57 36.72 38.57 36.72 38.57 36.72 40.53 36.72 40.53 36.72 40.53 36.72 40.53 42.68 40.53 42.68 40.53 42.68 46.59 42.68 46.59 42.68 46.59 42.68 46.59 44.74 46.59 44.74Z" fill="rgb(55,197,148)"/></svg>