<?xml version="1.0" encoding="utf-8"?>
<svg xmlns="http://www.w3.org/2000/svg"
	xmlns:xlink="http://www.w3.org/1999/xlink"
	width="51px" height="44px" viewBox="0 0 51 44">
<path fillRule="evenodd" d="M 50.55 13.69C 50.55 17.39 49.24 20.55 46.64 23.17 46.64 23.17 25.5 43.22 25.5 43.22 25.5 43.22 4.37 23.37 4.37 23.37 1.76 20.68 0.45 17.47 0.45 13.73 0.45 10 1.76 6.82 4.37 4.2 6.91 1.64 10.17 0.37 14.15 0.37 17.87 0.37 21 1.64 23.54 4.2 24.59 5.51 25.31 6.49 25.7 7.15 26.22 6.1 26.94 5.12 27.85 4.2 30.39 1.64 33.52 0.37 37.24 0.37 40.96 0.37 44.09 1.64 46.64 4.2 49.24 6.82 50.55 9.98 50.55 13.69ZM 48.4 13.44C 48.4 10.29 47.29 7.61 45.07 5.38 42.98 3.15 40.31 2.04 37.05 2.04 33.85 2.04 31.14 3.15 28.93 5.38 28.4 6.04 27.85 6.79 27.26 7.64 27.26 7.64 25.5 10.59 25.5 10.59 25.5 10.59 23.74 7.64 23.74 7.64 23.35 6.99 22.79 6.23 22.08 5.38 19.86 3.15 17.15 2.04 13.96 2.04 10.76 2.04 8.02 3.22 5.74 5.58 3.52 7.8 2.41 10.49 2.41 13.64 2.41 16.85 3.52 19.57 5.74 21.79 5.74 21.79 25.5 40.77 25.5 40.77 25.5 40.77 45.27 21.79 45.27 21.79 47.35 19.7 48.4 16.91 48.4 13.44 48.4 13.44 48.4 13.44 48.4 13.44Z" fill="rgb(177,123,244)"/></svg>