<?xml version="1.0" encoding="utf-8"?>
<svg xmlns="http://www.w3.org/2000/svg"
	xmlns:xlink="http://www.w3.org/1999/xlink"
	width="15px" height="15px" viewBox="0 0 15 15">
<path fillRule="evenodd" d="M 15 7.52C 15 9.6 14.27 11.37 12.81 12.82 11.35 14.28 9.58 15.01 7.5 15.01 5.42 15.01 3.65 14.28 2.19 12.82 0.73 11.37 0.01 9.6 0.01 7.52 0.01 5.44 0.73 3.67 2.19 2.21 3.65 0.76 5.42 0.03 7.5 0.03 9.58 0.03 11.35 0.76 12.81 2.21 14.27 3.67 15 5.44 15 7.52ZM 13.75 7.52C 13.75 5.8 13.14 4.33 11.91 3.11 10.69 1.89 9.22 1.28 7.5 1.28 5.78 1.28 4.31 1.89 3.09 3.11 1.87 4.33 1.26 5.8 1.26 7.52 1.26 9.23 1.87 10.7 3.09 11.93 4.31 13.15 5.78 13.76 7.5 13.76 9.22 13.76 10.69 13.15 11.91 11.93 13.14 10.7 13.75 9.23 13.75 7.52ZM 7.5 3.77C 8.54 3.77 9.43 4.14 10.16 4.86 10.88 5.59 11.25 6.48 11.25 7.52 11.25 8.56 10.88 9.44 10.16 10.17 9.43 10.9 8.54 11.26 7.5 11.26 6.46 11.26 5.58 10.9 4.85 10.17 4.12 9.44 3.75 8.56 3.75 7.52 3.75 6.48 4.12 5.59 4.85 4.86 5.58 4.14 6.46 3.77 7.5 3.77Z" fill="rgb(55,197,148)"/></svg>