<?xml version="1.0" encoding="utf-8"?>
<svg xmlns="http://www.w3.org/2000/svg"
	xmlns:xlink="http://www.w3.org/1999/xlink"
	width="51px" height="48px" viewBox="0 0 51 48">
<path fillRule="evenodd" d="M 6.32 45.44C 6.32 45.44 49.77 45.44 49.77 45.44 49.77 45.44 49.77 47.4 49.77 47.4 49.77 47.4 4.37 47.4 4.37 47.4 4.37 47.4 4.37 39.46 4.37 39.46 4.37 39.46 0.45 39.46 0.45 39.46 0.45 39.46 0.45 37.51 0.45 37.51 0.45 37.51 4.37 37.51 4.37 37.51 4.37 37.51 4.37 29.58 4.37 29.58 4.37 29.58 0.45 29.58 0.45 29.58 0.45 29.58 0.45 27.62 0.45 27.62 0.45 27.62 4.37 27.62 4.37 27.62 4.37 27.62 4.37 19.79 4.37 19.79 4.37 19.79 0.45 19.79 0.45 19.79 0.45 19.79 0.45 17.83 0.45 17.83 0.45 17.83 4.37 17.83 4.37 17.83 4.37 17.83 4.37 9.9 4.37 9.9 4.37 9.9 0.45 9.9 0.45 9.9 0.45 9.9 0.45 7.94 0.45 7.94 0.45 7.94 4.37 7.94 4.37 7.94 4.37 7.94 4.37 0.01 4.37 0.01 4.37 0.01 6.32 0.01 6.32 0.01 6.32 0.01 6.32 30.85 6.32 30.85 6.32 30.85 20.22 14.4 20.22 14.4 20.22 14.4 30 24.29 30 24.29 30 24.29 48.99 1.38 48.99 1.38 48.99 1.38 50.55 2.55 50.55 2.55 50.55 2.55 30 27.03 30 27.03 30 27.03 20.22 17.24 20.22 17.24 20.22 17.24 6.32 33.98 6.32 33.98 6.32 33.98 6.32 45.44 6.32 45.44Z" fill="rgb(251,95,69)"/></svg>