<?xml version="1.0" encoding="utf-8"?>
<svg xmlns="http://www.w3.org/2000/svg"
	xmlns:xlink="http://www.w3.org/1999/xlink"
	width="15px" height="16px" viewBox="0 0 15 16">
<path fillRule="evenodd" d="M 15 8.48C 15 10.58 14.27 12.35 12.81 13.82 11.35 15.28 9.58 16.01 7.5 16.01 5.42 16.01 3.65 15.28 2.19 13.82 0.73 12.35 0.01 10.58 0.01 8.48 0.01 6.39 0.73 4.61 2.19 3.15 3.65 1.69 5.42 0.95 7.5 0.95 9.58 0.95 11.35 1.69 12.81 3.15 14.27 4.61 15 6.39 15 8.48ZM 13.75 8.48C 13.75 6.76 13.14 5.28 11.91 4.05 10.69 2.82 9.22 2.21 7.5 2.21 5.78 2.21 4.31 2.82 3.09 4.05 1.87 5.28 1.26 6.76 1.26 8.48 1.26 10.21 1.87 11.69 3.09 12.91 4.31 14.14 5.78 14.76 7.5 14.76 9.22 14.76 10.69 14.14 11.91 12.91 13.14 11.69 13.75 10.21 13.75 8.48ZM 7.5 4.72C 8.54 4.72 9.43 5.09 10.16 5.82 10.88 6.55 11.25 7.44 11.25 8.48 11.25 9.53 10.88 10.42 10.16 11.15 9.43 11.88 8.54 12.25 7.5 12.25 6.46 12.25 5.58 11.88 4.85 11.15 4.12 10.42 3.75 9.53 3.75 8.48 3.75 7.44 4.12 6.55 4.85 5.82 5.58 5.09 6.46 4.72 7.5 4.72Z" fill="rgb(177,123,244)"/></svg>