<?xml version="1.0" encoding="utf-8"?>
<svg xmlns="http://www.w3.org/2000/svg"
	xmlns:xlink="http://www.w3.org/1999/xlink"
	width="15px" height="16px" viewBox="0 0 15 16">
<path fillRule="evenodd" d="M 15 7.77C 15 9.85 14.27 11.62 12.81 13.08 11.35 14.54 9.58 15.27 7.5 15.27 5.42 15.27 3.65 14.54 2.19 13.08 0.73 11.62 0.01 9.85 0.01 7.77 0.01 5.68 0.73 3.91 2.19 2.45 3.65 1 5.42 0.27 7.5 0.27 9.58 0.27 11.35 1 12.81 2.45 14.27 3.91 15 5.68 15 7.77ZM 13.75 7.77C 13.75 6.05 13.14 4.58 11.91 3.35 10.69 2.13 9.22 1.52 7.5 1.52 5.78 1.52 4.31 2.13 3.09 3.35 1.87 4.58 1.26 6.05 1.26 7.77 1.26 9.48 1.87 10.96 3.09 12.18 4.31 13.41 5.78 14.02 7.5 14.02 9.22 14.02 10.69 13.41 11.91 12.18 13.14 10.96 13.75 9.48 13.75 7.77ZM 7.5 4.02C 8.54 4.02 9.43 4.38 10.16 5.11 10.88 5.84 11.25 6.73 11.25 7.77 11.25 8.81 10.88 9.69 10.16 10.42 9.43 11.15 8.54 11.52 7.5 11.52 6.46 11.52 5.58 11.15 4.85 10.42 4.12 9.69 3.75 8.81 3.75 7.77 3.75 6.73 4.12 5.84 4.85 5.11 5.58 4.38 6.46 4.02 7.5 4.02Z" fill="rgb(251,95,69)"/></svg>