<?xml version="1.0" encoding="utf-8"?>
<svg xmlns="http://www.w3.org/2000/svg"
	xmlns:xlink="http://www.w3.org/1999/xlink"
	width="15px" height="15px" viewBox="0 0 15 15">
<path fillRule="evenodd" d="M 14.96 7.5C 14.96 9.58 14.23 11.36 12.77 12.82 11.32 14.28 9.55 15.01 7.47 15.01 5.39 15.01 3.62 14.28 2.16 12.82 0.71 11.36-0.02 9.58-0.02 7.5-0.02 5.41 0.71 3.63 2.16 2.17 3.62 0.71 5.39-0.02 7.47-0.02 9.55-0.02 11.32 0.71 12.77 2.17 14.23 3.63 14.96 5.41 14.96 7.5ZM 13.71 7.5C 13.71 5.77 13.1 4.3 11.87 3.07 10.65 1.85 9.18 1.23 7.47 1.23 5.75 1.23 4.28 1.85 3.06 3.07 1.84 4.3 1.23 5.77 1.23 7.5 1.23 9.22 1.84 10.69 3.06 11.92 4.28 13.15 5.75 13.76 7.47 13.76 9.18 13.76 10.65 13.15 11.87 11.92 13.1 10.69 13.71 9.22 13.71 7.5ZM 7.47 3.74C 8.51 3.74 9.39 4.1 10.12 4.83 10.85 5.56 11.21 6.45 11.21 7.5 11.21 8.54 10.85 9.43 10.12 10.16 9.39 10.89 8.51 11.25 7.47 11.25 6.43 11.25 5.54 10.89 4.82 10.16 4.09 9.43 3.72 8.54 3.72 7.5 3.72 6.45 4.09 5.56 4.82 4.83 5.54 4.1 6.43 3.74 7.47 3.74Z" fill="rgb(253,184,95)"/></svg>