<?xml version="1.0" encoding="utf-8"?>
<svg xmlns="http://www.w3.org/2000/svg"
	xmlns:xlink="http://www.w3.org/1999/xlink"
	width="30px" height="31px" viewBox="0 0 30 31">
<path fillRule="evenodd" d="M 29.18 0.94C 29.65 1.41 29.88 2.25 29.88 3.46 29.88 13.89 29.86 21.72 29.82 26.95 29.82 28.16 29.58 29.01 29.09 29.5 28.6 29.99 27.75 30.23 26.54 30.23 26.54 30.23 16.87 30.23 16.87 30.23 16.21 30.23 15.74 30.12 15.47 29.88 15.19 29.65 15.08 29.2 15.12 28.53 15.12 27.4 15.12 25.71 15.12 23.47 15.12 21.22 15.14 19.53 15.18 18.4 15.18 17.81 15.08 17.41 14.88 17.2 14.69 16.98 14.32 16.89 13.77 16.93 13.22 17.01 12.4 17.01 11.31 16.93 10.84 16.93 10.61 16.76 10.61 16.41 10.61 16.02 10.84 15.82 11.31 15.82 11.5 15.82 11.79 15.82 12.16 15.82 12.53 15.82 12.86 15.82 13.15 15.82 13.45 15.82 13.73 15.82 14 15.82 14.47 15.86 14.79 15.78 14.97 15.59 15.15 15.39 15.21 15.08 15.18 14.65 15.1 13.52 15.1 12.42 15.18 11.37 15.21 10.12 15.62 9.19 16.41 8.58 17.19 7.98 18.2 7.77 19.45 7.97 20.43 8.09 21.31 8.34 22.09 8.73 22.13 8.73 22.17 8.75 22.21 8.79 22.71 9.02 22.91 9.3 22.79 9.61 22.6 10.04 22.19 10.12 21.56 9.84 20.51 9.37 19.53 9.14 18.63 9.14 17.46 9.14 16.76 9.71 16.52 10.84 16.41 11.27 16.34 11.72 16.32 12.19 16.3 12.66 16.3 13.18 16.32 13.77 16.34 14.35 16.35 14.8 16.35 15.12 16.35 15.2 16.35 15.27 16.35 15.35 16.39 15.66 16.7 15.82 17.29 15.82 17.29 15.82 21.8 15.82 21.8 15.82 22.46 15.82 22.79 16.02 22.79 16.41 22.79 16.95 22.44 17.19 21.74 17.11 20.8 17.11 19.32 17.07 17.29 16.99 16.89 16.95 16.63 17.01 16.49 17.17 16.36 17.32 16.29 17.6 16.29 17.99 16.37 21.23 16.37 24.49 16.29 27.77 16.29 28.52 16.64 28.89 17.34 28.89 18.28 28.89 19.26 28.9 20.27 28.92 21.29 28.94 22.42 28.96 23.67 29 24.92 29.04 25.9 29.06 26.6 29.06 27.38 29.06 27.89 28.94 28.12 28.68 28.36 28.43 28.5 27.89 28.54 27.07 28.54 27.07 28.71 3.87 28.71 3.87 28.71 2.81 28.59 2.18 28.36 1.96 28.12 1.75 27.46 1.62 26.37 1.58 21.33 1.43 13.73 1.35 3.57 1.35 2.64 1.35 2.07 1.45 1.87 1.67 1.68 1.89 1.54 2.48 1.46 3.46 1.46 3.5 1.41 11.19 1.29 26.54 1.29 27.6 1.42 28.24 1.67 28.48 1.92 28.71 2.56 28.83 3.57 28.83 5.84 28.83 7.52 28.85 8.61 28.89 9.43 28.89 9.86 29.08 9.9 29.47 9.9 29.94 9.49 30.18 8.67 30.18 8.67 30.18 2.75 30.18 2.75 30.18 1.07 30.1 0.19 29.18 0.12 27.42 0.12 27.42 0.12 15.29 0.12 15.29 0.12 15.29 0.18 15.29 0.18 15.29 0.18 15.29 0.18 3.34 0.18 3.34 0.18 2.17 0.41 1.35 0.88 0.88 1.35 0.41 2.15 0.2 3.28 0.23 3.28 0.23 26.66 0.23 26.66 0.23 27.87 0.23 28.71 0.47 29.18 0.94Z" fill="rgb(255,255,255)"/></svg>