<?xml version="1.0" encoding="utf-8"?>
<svg xmlns="http://www.w3.org/2000/svg"
	xmlns:xlink="http://www.w3.org/1999/xlink"
	width="28px" height="31px" viewBox="0 0 28 31">
<path fillRule="evenodd" d="M 17.28 22.85C 17.59 24.84 17.24 26.5 16.23 27.83 15.52 28.73 14.47 29.38 13.06 29.77 12.05 30 11.28 30.14 10.78 30.18 10.78 30.18 10.54 30.18 10.54 30.18 10.54 30.18 7.85 30.18 7.85 30.18 7.61 30.18 7.26 30.14 6.79 30.06 5.19 29.82 3.92 29.51 2.98 29.12 1.7 28.5 0.82 27.62 0.35 26.48 0.19 25.94 0.09 25.53 0.05 25.25 0.05 25.25 0.05 24.08 0.05 24.08 0.09 24 0.11 23.93 0.11 23.85 0.15 23.34 0.31 22.83 0.58 22.32 0.7 22.09 0.78 21.95 0.82 21.91 1.01 21.84 1.22 21.97 1.43 22.32 1.65 22.68 1.7 22.99 1.58 23.26 1.34 23.73 1.27 24.41 1.34 25.31 1.5 26.41 2.09 27.23 3.1 27.77 3.69 28.12 4.31 28.36 4.98 28.48 6.34 28.83 8.04 28.96 10.07 28.89 11.13 28.89 12.07 28.75 12.89 28.48 14.02 28.16 14.88 27.6 15.46 26.78 15.89 26.11 16.11 25.21 16.11 24.08 16.15 22.75 15.66 21.64 14.64 20.74 14.57 20.66 14.47 20.62 14.35 20.62 12.09 20.35 10.15 20.21 8.55 20.21 7.03 20.29 5.8 20.47 4.86 20.74 4.78 20.74 4.67 20.76 4.54 20.8 4.4 20.84 4.29 20.88 4.21 20.92 4.1 20.92 3.97 20.84 3.83 20.68 3.7 20.53 3.6 20.37 3.54 20.21 3.48 20.06 3.49 19.94 3.57 19.86 5.29 19.2 7.63 18.91 10.6 18.98 10.76 18.98 11.01 19 11.36 19.04 11.71 19.08 11.99 19.1 12.18 19.1 12.07 18.98 11.87 18.82 11.6 18.6 11.32 18.39 11.13 18.24 11.01 18.16 10.03 17.34 9.66 16.39 9.9 15.29 9.9 15.21 9.88 15.16 9.84 15.12 9.84 15.12 9.72 15.12 9.72 15.12 8.82 15.27 7.94 15.27 7.09 15.12 4.39 14.65 2.57 13.16 1.64 10.66 1.17 9.45 1.03 8.07 1.23 6.5 1.42 5.14 1.83 4.04 2.46 3.22 3.39 1.89 4.86 1 6.85 0.53 7.05 0.49 7.31 0.44 7.64 0.38 7.97 0.32 8.22 0.29 8.37 0.29 10.84 0.14 13.49 0.14 16.34 0.29 16.5 0.29 16.62 0.43 16.7 0.7 16.77 0.9 16.75 1.08 16.64 1.26 16.52 1.44 16.34 1.52 16.11 1.52 16.11 1.52 13.36 1.52 13.36 1.52 13.24 1.52 13.14 1.54 13.06 1.58 13.14 1.62 13.25 1.7 13.38 1.82 13.52 1.93 13.61 2.03 13.65 2.11 15.09 3.48 15.89 4.98 16.05 6.62 16.25 9.12 15.66 11.13 14.29 12.66 13.94 13.01 13.3 13.5 12.36 14.12 12.05 14.35 11.81 14.55 11.66 14.71 10.87 15.37 10.82 16.09 11.48 16.87 11.79 17.23 12.18 17.54 12.65 17.81 14.37 18.98 15.27 19.61 15.35 19.69 15.35 19.69 15.35 19.69 15.35 19.69 16.44 20.62 17.09 21.68 17.28 22.85 17.28 22.85 17.28 22.85 17.28 22.85ZM 13.53 11.54C 14.19 10.88 14.62 9.84 14.82 8.44 14.98 6.95 14.78 5.76 14.23 4.86 13.18 2.99 11.77 1.91 10.02 1.64 8.37 1.41 6.81 1.66 5.33 2.4 4.08 3.03 3.26 3.96 2.87 5.21 2.55 5.96 2.4 6.89 2.4 8.03 2.4 9.12 2.67 10.16 3.22 11.13 4.35 13.05 6.17 14 8.67 14 10.31 13.96 11.93 13.14 13.53 11.54 13.53 11.54 13.53 11.54 13.53 11.54ZM 27.95 14.41C 27.95 14.41 27.95 14.77 27.95 14.77 27.79 15.08 27.5 15.23 27.07 15.23 27.07 15.23 23.96 15.23 23.96 15.23 23.69 15.23 23.55 15.35 23.55 15.59 23.55 15.59 23.55 18.75 23.55 18.75 23.55 19.34 23.35 19.63 22.96 19.63 22.53 19.55 22.32 19.26 22.32 18.75 22.32 18.75 22.32 15.53 22.32 15.53 22.32 15.33 22.22 15.23 22.03 15.23 22.03 15.23 18.8 15.23 18.8 15.23 18.26 15.23 17.98 15.04 17.98 14.65 17.98 14.22 18.26 14 18.8 14 18.8 14 21.97 14 21.97 14 22.2 14 22.32 13.87 22.32 13.59 22.32 13.59 22.32 10.55 22.32 10.55 22.32 10.55 22.32 10.2 22.32 10.2 22.4 9.77 22.61 9.59 22.96 9.67 23.35 9.67 23.55 9.84 23.55 10.2 23.55 10.2 23.55 11.66 23.55 11.66 23.55 11.82 23.55 12.03 23.55 12.3 23.55 12.58 23.55 12.83 23.55 13.07 23.55 13.3 23.55 13.52 23.55 13.71 23.55 13.91 23.67 14 23.9 14 23.9 14 27.07 14 27.07 14 27.46 14 27.75 14.14 27.95 14.41 27.95 14.41 27.95 14.41 27.95 14.41Z" fill="rgb(255,255,255)"/></svg>