<?xml version="1.0" encoding="utf-8"?>
<svg xmlns="http://www.w3.org/2000/svg"
	xmlns:xlink="http://www.w3.org/1999/xlink"
	width="30px" height="31px" viewBox="0 0 30 31">
<path fillRule="evenodd" d="M 30 27.3C 30 28.36 29.78 29.1 29.36 29.53 28.93 29.96 28.18 30.19 27.13 30.23 27.13 30.23 2.81 30.23 2.81 30.23 0.98 30.23 0.04 29.32-0 27.48-0 27.48-0 21.5-0 21.5-0 20.8 0.21 20.45 0.64 20.45 1 20.49 1.17 20.84 1.17 21.5 1.17 21.5 1.17 27.19 1.17 27.19 1.17 28.44 1.78 29.06 2.99 29.06 2.99 29.06 27.01 29.06 27.01 29.06 28.22 29.06 28.83 28.48 28.83 27.3 28.83 27.3 28.83 17.87 28.83 17.87 28.83 17.44 28.75 17.14 28.59 16.96 28.44 16.79 28.16 16.72 27.77 16.76 27.46 16.84 27.17 16.84 26.89 16.76 25.61 16.56 24.58 16.67 23.82 17.08 23.06 17.49 22.46 18.34 22.03 19.63 21.64 21 20.69 22.11 19.19 22.97 17.69 23.83 16.23 24.18 14.82 24.02 13.07 23.83 11.52 23.2 10.2 22.15 8.87 21.09 8.01 19.79 7.62 18.22 7.34 17.13 6.68 16.64 5.62 16.76 5.62 16.76 1.29 16.76 1.29 16.76 0.43 16.84-0 16.46-0 15.64-0 15.64-0 2.52-0 2.52 0.08 1 1 0.23 2.75 0.23 2.75 0.23 23.44 0.23 23.44 0.23 23.44 0.23 27.25 0.23 27.25 0.23 29.08 0.23 30 1.15 30 2.99 30 2.99 30 15.23 30 15.23 30 15.23 30 27.3 30 27.3ZM 19.95 20.77C 21.22 19.5 21.86 17.91 21.86 16 21.86 14.16 21.22 12.63 19.95 11.4 18.68 10.17 17.07 9.51 15.12 9.43 13.36 9.39 11.81 10.06 10.46 11.43 9.11 12.79 8.44 14.35 8.44 16.11 8.44 17.91 9.13 19.49 10.52 20.86 11.9 22.23 13.46 22.83 15.18 22.68 17.09 22.68 18.68 22.04 19.95 20.77ZM 28.56 15.23C 28.78 15.04 28.87 14.69 28.83 14.18 28.75 10.51 28.75 6.85 28.83 3.22 28.83 2.56 28.68 2.08 28.39 1.79 28.1 1.49 27.6 1.37 26.89 1.41 26.89 1.41 15.12 1.41 15.12 1.41 15.12 1.41 2.93 1.41 2.93 1.41 2.3 1.41 1.85 1.53 1.58 1.79 1.31 2.04 1.17 2.48 1.17 3.1 1.17 3.1 1.17 14.3 1.17 14.3 1.17 14.77 1.26 15.08 1.44 15.23 1.61 15.39 1.91 15.45 2.34 15.41 4.41 15.41 5.59 15.43 5.86 15.47 6.41 15.59 6.8 15.55 7.03 15.35 7.27 15.16 7.44 14.79 7.56 14.24 7.99 12.44 8.94 10.97 10.43 9.81 11.91 8.66 13.54 8.12 15.29 8.2 17.05 8.28 18.62 8.85 20.01 9.9 21.4 10.96 22.32 12.38 22.79 14.18 22.99 15.08 23.5 15.51 24.32 15.47 25.25 15.35 26.31 15.33 27.48 15.41 27.99 15.49 28.35 15.43 28.56 15.23ZM 26.48 4.1C 26.72 4.37 26.84 5.19 26.84 6.56 26.84 7.85 26.68 8.66 26.37 8.99 26.05 9.33 25.29 9.49 24.08 9.49 22.83 9.49 22.04 9.32 21.71 8.96 21.38 8.61 21.21 7.75 21.21 6.39 21.21 5.06 21.35 4.28 21.62 4.04 21.89 3.81 22.77 3.69 24.26 3.69 25.51 3.69 26.25 3.83 26.48 4.1ZM 25.72 6.45C 25.68 5.78 25.56 5.32 25.34 5.07 25.13 4.81 24.71 4.77 24.08 4.92 23.46 4.8 23.01 4.85 22.73 5.07 22.46 5.28 22.34 5.72 22.38 6.39 22.42 7.09 22.53 7.58 22.71 7.85 22.88 8.12 23.3 8.24 23.96 8.2 24.63 8.16 25.09 8.03 25.34 7.79 25.6 7.56 25.72 7.11 25.72 6.45 25.72 6.45 25.72 6.45 25.72 6.45ZM 17.64 19.92C 17.6 20.08 17.61 20.19 17.67 20.24 17.72 20.3 17.69 20.37 17.55 20.45 17.41 20.53 17.33 20.58 17.31 20.6 17.29 20.62 17.21 20.66 17.05 20.74 17.05 20.74 16.82 20.8 16.82 20.8 15.92 21.07 15.31 21.19 15 21.15 13.44 21.15 12.11 20.48 11.02 19.13 9.92 17.78 9.59 16.37 10.02 14.88 10.02 14.84 10.04 14.75 10.08 14.59 10.12 14.43 10.16 14.32 10.2 14.24 10.23 14.16 10.29 14.09 10.37 14.03 10.45 13.97 10.57 13.96 10.72 14 11.11 14.04 11.27 14.41 11.19 15.12 10.92 16.76 11.33 18.04 12.42 18.95 13.52 19.87 14.86 20.12 16.46 19.69 17.13 19.45 17.52 19.53 17.64 19.92 17.64 19.92 17.64 19.92 17.64 19.92Z" fill="rgb(255,255,255)"/></svg>