<?xml version="1.0" encoding="utf-8"?>
<svg xmlns="http://www.w3.org/2000/svg"
	xmlns:xlink="http://www.w3.org/1999/xlink"
	width="164px" height="31px" viewBox="0 0 164 31">
<g><path fillRule="evenodd" d="M 153.28 22.85C 153.59 24.84 153.24 26.5 152.23 27.83 151.52 28.73 150.47 29.38 149.06 29.77 148.05 30 147.28 30.14 146.78 30.18 146.78 30.18 146.54 30.18 146.54 30.18 146.54 30.18 143.85 30.18 143.85 30.18 143.61 30.18 143.26 30.14 142.79 30.06 141.19 29.82 139.92 29.51 138.98 29.12 137.7 28.5 136.82 27.62 136.35 26.48 136.19 25.94 136.09 25.53 136.05 25.25 136.05 25.25 136.05 24.08 136.05 24.08 136.09 24 136.11 23.93 136.11 23.85 136.15 23.34 136.31 22.83 136.58 22.32 136.7 22.09 136.78 21.95 136.82 21.91 137.01 21.84 137.22 21.97 137.43 22.32 137.65 22.68 137.7 22.99 137.58 23.26 137.34 23.73 137.27 24.41 137.34 25.31 137.5 26.41 138.09 27.23 139.1 27.77 139.69 28.12 140.31 28.36 140.98 28.48 142.34 28.83 144.04 28.96 146.07 28.89 147.13 28.89 148.07 28.75 148.89 28.48 150.02 28.16 150.88 27.6 151.46 26.78 151.89 26.11 152.11 25.21 152.11 24.08 152.15 22.75 151.66 21.64 150.64 20.74 150.57 20.66 150.47 20.62 150.35 20.62 148.09 20.35 146.15 20.21 144.55 20.21 143.03 20.29 141.8 20.47 140.86 20.74 140.78 20.74 140.67 20.76 140.54 20.8 140.4 20.84 140.29 20.88 140.21 20.92 140.1 20.92 139.97 20.84 139.83 20.68 139.7 20.53 139.6 20.37 139.54 20.21 139.48 20.06 139.49 19.94 139.57 19.86 141.29 19.2 143.63 18.91 146.6 18.98 146.76 18.98 147.01 19 147.36 19.04 147.71 19.08 147.99 19.1 148.18 19.1 148.07 18.98 147.87 18.82 147.6 18.6 147.32 18.39 147.13 18.24 147.01 18.16 146.03 17.34 145.66 16.39 145.9 15.29 145.9 15.21 145.88 15.16 145.84 15.12 145.84 15.12 145.72 15.12 145.72 15.12 144.82 15.27 143.94 15.27 143.09 15.12 140.39 14.65 138.57 13.16 137.64 10.66 137.17 9.45 137.03 8.07 137.23 6.5 137.42 5.14 137.83 4.04 138.46 3.22 139.39 1.89 140.86 1 142.85 0.53 143.05 0.49 143.31 0.44 143.64 0.38 143.97 0.32 144.22 0.29 144.37 0.29 146.84 0.14 149.49 0.14 152.34 0.29 152.5 0.29 152.62 0.43 152.7 0.7 152.77 0.9 152.75 1.08 152.64 1.26 152.52 1.44 152.34 1.52 152.11 1.52 152.11 1.52 149.36 1.52 149.36 1.52 149.24 1.52 149.14 1.54 149.06 1.58 149.14 1.62 149.25 1.7 149.38 1.82 149.52 1.93 149.61 2.03 149.65 2.11 151.09 3.48 151.89 4.98 152.05 6.62 152.25 9.12 151.66 11.13 150.29 12.66 149.94 13.01 149.3 13.5 148.36 14.12 148.05 14.35 147.81 14.55 147.66 14.71 146.87 15.37 146.82 16.09 147.48 16.87 147.79 17.23 148.18 17.54 148.65 17.81 150.37 18.98 151.27 19.61 151.35 19.69 151.35 19.69 151.35 19.69 151.35 19.69 152.44 20.62 153.09 21.68 153.28 22.85 153.28 22.85 153.28 22.85 153.28 22.85ZM 149.53 11.54C 150.19 10.88 150.62 9.84 150.82 8.44 150.98 6.95 150.78 5.76 150.23 4.86 149.18 2.99 147.77 1.91 146.02 1.64 144.37 1.41 142.81 1.66 141.33 2.4 140.08 3.03 139.26 3.96 138.87 5.21 138.55 5.96 138.4 6.89 138.4 8.03 138.4 9.12 138.67 10.16 139.22 11.13 140.35 13.05 142.17 14 144.67 14 146.31 13.96 147.93 13.14 149.53 11.54 149.53 11.54 149.53 11.54 149.53 11.54ZM 163.95 14.41C 163.95 14.41 163.95 14.77 163.95 14.77 163.79 15.08 163.5 15.23 163.07 15.23 163.07 15.23 159.96 15.23 159.96 15.23 159.69 15.23 159.55 15.35 159.55 15.59 159.55 15.59 159.55 18.75 159.55 18.75 159.55 19.34 159.35 19.63 158.96 19.63 158.53 19.55 158.32 19.26 158.32 18.75 158.32 18.75 158.32 15.53 158.32 15.53 158.32 15.33 158.22 15.23 158.03 15.23 158.03 15.23 154.8 15.23 154.8 15.23 154.26 15.23 153.98 15.04 153.98 14.65 153.98 14.22 154.26 14 154.8 14 154.8 14 157.97 14 157.97 14 158.2 14 158.32 13.87 158.32 13.59 158.32 13.59 158.32 10.55 158.32 10.55 158.32 10.55 158.32 10.2 158.32 10.2 158.4 9.77 158.61 9.59 158.96 9.67 159.35 9.67 159.55 9.84 159.55 10.2 159.55 10.2 159.55 11.66 159.55 11.66 159.55 11.82 159.55 12.03 159.55 12.3 159.55 12.58 159.55 12.83 159.55 13.07 159.55 13.3 159.55 13.52 159.55 13.71 159.55 13.91 159.67 14 159.9 14 159.9 14 163.07 14 163.07 14 163.46 14 163.75 14.14 163.95 14.41 163.95 14.41 163.95 14.41 163.95 14.41Z" fill="rgb(255,255,255)"/><path fillRule="evenodd" d="M 29.18 0.94C 29.65 1.41 29.88 2.25 29.88 3.46 29.88 13.89 29.86 21.72 29.82 26.95 29.82 28.16 29.58 29.01 29.09 29.5 28.6 29.99 27.75 30.23 26.54 30.23 26.54 30.23 16.87 30.23 16.87 30.23 16.21 30.23 15.74 30.12 15.47 29.88 15.19 29.65 15.08 29.2 15.12 28.53 15.12 27.4 15.12 25.71 15.12 23.47 15.12 21.22 15.14 19.53 15.18 18.4 15.18 17.81 15.08 17.41 14.88 17.2 14.69 16.98 14.32 16.89 13.77 16.93 13.22 17.01 12.4 17.01 11.31 16.93 10.84 16.93 10.61 16.76 10.61 16.41 10.61 16.02 10.84 15.82 11.31 15.82 11.5 15.82 11.79 15.82 12.16 15.82 12.53 15.82 12.86 15.82 13.15 15.82 13.45 15.82 13.73 15.82 14 15.82 14.47 15.86 14.79 15.78 14.97 15.59 15.15 15.39 15.21 15.08 15.18 14.65 15.1 13.52 15.1 12.42 15.18 11.37 15.21 10.12 15.62 9.19 16.41 8.58 17.19 7.98 18.2 7.77 19.45 7.97 20.43 8.09 21.31 8.34 22.09 8.73 22.13 8.73 22.17 8.75 22.21 8.79 22.71 9.02 22.91 9.3 22.79 9.61 22.6 10.04 22.19 10.12 21.56 9.84 20.51 9.37 19.53 9.14 18.63 9.14 17.46 9.14 16.76 9.71 16.52 10.84 16.41 11.27 16.34 11.72 16.32 12.19 16.3 12.66 16.3 13.18 16.32 13.77 16.34 14.35 16.35 14.8 16.35 15.12 16.35 15.2 16.35 15.27 16.35 15.35 16.39 15.66 16.7 15.82 17.29 15.82 17.29 15.82 21.8 15.82 21.8 15.82 22.46 15.82 22.79 16.02 22.79 16.41 22.79 16.95 22.44 17.19 21.74 17.11 20.8 17.11 19.32 17.07 17.29 16.99 16.89 16.95 16.63 17.01 16.49 17.17 16.36 17.32 16.29 17.6 16.29 17.99 16.37 21.23 16.37 24.49 16.29 27.77 16.29 28.52 16.64 28.89 17.34 28.89 18.28 28.89 19.26 28.9 20.27 28.92 21.29 28.94 22.42 28.96 23.67 29 24.92 29.04 25.9 29.06 26.6 29.06 27.38 29.06 27.89 28.94 28.12 28.68 28.36 28.43 28.5 27.89 28.54 27.07 28.54 27.07 28.71 3.87 28.71 3.87 28.71 2.81 28.59 2.18 28.36 1.96 28.12 1.75 27.46 1.62 26.37 1.58 21.33 1.43 13.73 1.35 3.57 1.35 2.64 1.35 2.07 1.45 1.87 1.67 1.68 1.89 1.54 2.48 1.46 3.46 1.46 3.5 1.41 11.19 1.29 26.54 1.29 27.6 1.42 28.24 1.67 28.48 1.92 28.71 2.56 28.83 3.57 28.83 5.84 28.83 7.52 28.85 8.61 28.89 9.43 28.89 9.86 29.08 9.9 29.47 9.9 29.94 9.49 30.18 8.67 30.18 8.67 30.18 2.75 30.18 2.75 30.18 1.07 30.1 0.19 29.18 0.12 27.42 0.12 27.42 0.12 15.29 0.12 15.29 0.12 15.29 0.18 15.29 0.18 15.29 0.18 15.29 0.18 3.34 0.18 3.34 0.18 2.17 0.41 1.35 0.88 0.88 1.35 0.41 2.15 0.2 3.28 0.23 3.28 0.23 26.66 0.23 26.66 0.23 27.87 0.23 28.71 0.47 29.18 0.94Z" fill="rgb(255,255,255)"/><path fillRule="evenodd" d="M 120 27.3C 120 28.36 119.78 29.1 119.36 29.53 118.93 29.96 118.18 30.19 117.13 30.23 117.13 30.23 92.81 30.23 92.81 30.23 90.98 30.23 90.04 29.32 90 27.48 90 27.48 90 21.5 90 21.5 90 20.8 90.21 20.45 90.64 20.45 91 20.49 91.17 20.84 91.17 21.5 91.17 21.5 91.17 27.19 91.17 27.19 91.17 28.44 91.78 29.06 92.99 29.06 92.99 29.06 117.01 29.06 117.01 29.06 118.22 29.06 118.83 28.48 118.83 27.3 118.83 27.3 118.83 17.87 118.83 17.87 118.83 17.44 118.75 17.14 118.59 16.96 118.44 16.79 118.16 16.72 117.77 16.76 117.46 16.84 117.17 16.84 116.89 16.76 115.61 16.56 114.58 16.67 113.82 17.08 113.06 17.49 112.46 18.34 112.03 19.63 111.64 21 110.69 22.11 109.19 22.97 107.69 23.83 106.23 24.18 104.82 24.02 103.07 23.83 101.52 23.2 100.2 22.15 98.87 21.09 98.01 19.79 97.62 18.22 97.34 17.13 96.68 16.64 95.62 16.76 95.62 16.76 91.29 16.76 91.29 16.76 90.43 16.84 90 16.46 90 15.64 90 15.64 90 2.52 90 2.52 90.08 1 91 0.23 92.75 0.23 92.75 0.23 113.44 0.23 113.44 0.23 113.44 0.23 117.25 0.23 117.25 0.23 119.08 0.23 120 1.15 120 2.99 120 2.99 120 15.23 120 15.23 120 15.23 120 27.3 120 27.3ZM 109.95 20.77C 111.22 19.5 111.86 17.91 111.86 16 111.86 14.16 111.22 12.63 109.95 11.4 108.68 10.17 107.07 9.51 105.12 9.43 103.36 9.39 101.81 10.06 100.46 11.43 99.11 12.79 98.44 14.35 98.44 16.11 98.44 17.91 99.13 19.49 100.52 20.86 101.9 22.23 103.46 22.83 105.18 22.68 107.09 22.68 108.68 22.04 109.95 20.77ZM 118.56 15.23C 118.78 15.04 118.87 14.69 118.83 14.18 118.75 10.51 118.75 6.85 118.83 3.22 118.83 2.56 118.68 2.08 118.39 1.79 118.1 1.49 117.6 1.37 116.89 1.41 116.89 1.41 105.12 1.41 105.12 1.41 105.12 1.41 92.93 1.41 92.93 1.41 92.3 1.41 91.85 1.53 91.58 1.79 91.31 2.04 91.17 2.48 91.17 3.1 91.17 3.1 91.17 14.3 91.17 14.3 91.17 14.77 91.26 15.08 91.44 15.23 91.61 15.39 91.91 15.45 92.34 15.41 94.41 15.41 95.59 15.43 95.86 15.47 96.41 15.59 96.8 15.55 97.03 15.35 97.27 15.16 97.44 14.79 97.56 14.24 97.99 12.44 98.94 10.97 100.43 9.81 101.91 8.66 103.54 8.12 105.29 8.2 107.05 8.28 108.62 8.85 110.01 9.9 111.4 10.96 112.32 12.38 112.79 14.18 112.99 15.08 113.5 15.51 114.32 15.47 115.25 15.35 116.31 15.33 117.48 15.41 117.99 15.49 118.35 15.43 118.56 15.23ZM 116.48 4.1C 116.72 4.37 116.84 5.19 116.84 6.56 116.84 7.85 116.68 8.66 116.37 8.99 116.05 9.33 115.29 9.49 114.08 9.49 112.83 9.49 112.04 9.32 111.71 8.96 111.38 8.61 111.21 7.75 111.21 6.39 111.21 5.06 111.35 4.28 111.62 4.04 111.89 3.81 112.77 3.69 114.26 3.69 115.51 3.69 116.25 3.83 116.48 4.1ZM 115.72 6.45C 115.68 5.78 115.56 5.32 115.34 5.07 115.13 4.81 114.71 4.77 114.08 4.92 113.46 4.8 113.01 4.85 112.73 5.07 112.46 5.28 112.34 5.72 112.38 6.39 112.42 7.09 112.53 7.58 112.71 7.85 112.88 8.12 113.3 8.24 113.96 8.2 114.63 8.16 115.09 8.03 115.34 7.79 115.6 7.56 115.72 7.11 115.72 6.45 115.72 6.45 115.72 6.45 115.72 6.45ZM 107.64 19.92C 107.6 20.08 107.61 20.19 107.67 20.24 107.72 20.3 107.69 20.37 107.55 20.45 107.41 20.53 107.33 20.58 107.31 20.6 107.29 20.62 107.21 20.66 107.05 20.74 107.05 20.74 106.82 20.8 106.82 20.8 105.92 21.07 105.31 21.19 105 21.15 103.44 21.15 102.11 20.48 101.02 19.13 99.92 17.78 99.59 16.37 100.02 14.88 100.02 14.84 100.04 14.75 100.08 14.59 100.12 14.43 100.16 14.32 100.2 14.24 100.23 14.16 100.29 14.09 100.37 14.03 100.45 13.97 100.57 13.96 100.72 14 101.11 14.04 101.27 14.41 101.19 15.12 100.92 16.76 101.33 18.04 102.42 18.95 103.52 19.87 104.86 20.12 106.46 19.69 107.13 19.45 107.52 19.53 107.64 19.92 107.64 19.92 107.64 19.92 107.64 19.92Z" fill="rgb(255,255,255)"/><path fillRule="evenodd" d="M 74.88 6.33C 74.57 6.95 74.28 7.38 74 7.62 73.46 7.97 73.04 8.43 72.74 8.99 72.45 9.56 72.26 10.07 72.16 10.52 72.06 10.97 71.97 11.56 71.89 12.3 71.5 15.94 70.07 19.16 67.59 21.97 65.11 24.78 62.09 26.58 58.54 27.36 53.96 28.38 49.75 27.71 45.88 25.37 45.84 25.33 45.73 25.27 45.56 25.2 45.38 25.12 45.27 25.06 45.23 25.02 45.19 24.98 45.13 24.89 45.03 24.76 44.93 24.62 44.94 24.49 45.06 24.37 45.1 24.22 45.17 24.11 45.26 24.05 45.36 23.99 45.46 23.97 45.56 23.99 45.65 24.01 45.77 24.03 45.91 24.05 46.04 24.07 46.15 24.08 46.23 24.08 48.5 24.32 50.29 24.16 51.62 23.61 52.21 23.46 52.56 23.55 52.68 23.91 52.75 24.26 52.52 24.51 51.97 24.67 51.62 24.78 51.1 24.93 50.42 25.11 49.74 25.28 49.2 25.43 48.81 25.55 51.04 26.45 53.16 26.84 55.2 26.72 59.49 26.48 63.01 25.01 65.74 22.29 68.48 19.58 70.16 16.33 70.78 12.54 70.86 12.15 70.9 11.87 70.9 11.72 70.9 11.64 70.9 11.45 70.9 11.13 70.9 10.82 70.9 10.61 70.9 10.52 70.9 10.42 70.91 10.22 70.93 9.93 70.95 9.64 70.99 9.43 71.04 9.32 71.1 9.2 71.17 9.03 71.25 8.82 71.33 8.6 71.43 8.44 71.57 8.32 71.71 8.2 71.87 8.08 72.07 7.94 72.27 7.8 72.48 7.68 72.71 7.56 72.64 7.52 72.56 7.46 72.48 7.38 72.48 7.38 72.36 7.32 72.36 7.32 72.25 7.32 72.06 7.36 71.81 7.44 71.55 7.52 71.34 7.55 71.16 7.53 70.99 7.51 70.84 7.38 70.72 7.15 70.61 6.91 70.6 6.73 70.69 6.59 70.79 6.46 70.96 6.32 71.19 6.18 71.43 6.04 71.58 5.94 71.66 5.86 71.66 5.86 72.01 5.33 72.01 5.33 72.01 5.33 71.84 5.16 71.84 5.16 70.7 5.62 69.53 5.43 68.32 4.57 66.64 3.44 64.89 3.36 63.08 4.34 61.26 5.31 60.31 6.84 60.23 8.91 60.16 10.12 60.02 10.81 59.82 10.99 59.63 11.16 58.91 11.13 57.66 10.9 54.26 10.31 50.98 8.55 47.81 5.62 47.3 6.41 47.16 7.34 47.37 8.44 47.59 9.53 48.09 10.51 48.87 11.37 48.94 11.45 49.1 11.55 49.34 11.69 49.57 11.83 49.71 11.94 49.75 12.04 49.78 12.14 49.78 12.32 49.75 12.6 49.63 12.83 49.48 12.97 49.31 13.01 49.13 13.05 48.9 13.02 48.6 12.92 48.31 12.82 48.11 12.77 47.99 12.77 47.75 12.69 47.54 12.64 47.34 12.6 47.7 14.63 48.79 16.05 50.62 16.87 50.62 16.87 51.09 16.99 51.09 16.99 51.45 17.07 51.66 17.17 51.74 17.28 51.82 17.4 51.84 17.56 51.8 17.75 51.72 18.1 51.21 18.32 50.27 18.4 50.27 18.4 49.69 18.52 49.69 18.52 50.39 19.96 51.58 20.9 53.26 21.33 53.26 21.33 53.67 21.33 53.67 21.33 53.71 21.33 53.83 21.35 54.02 21.39 54.22 21.43 54.35 21.46 54.43 21.5 54.51 21.54 54.59 21.61 54.67 21.71 54.75 21.81 54.77 21.95 54.73 22.15 54.65 22.58 54.24 22.7 53.5 22.5 51.54 22.15 50.08 21.19 49.1 19.63 49.06 19.59 48.98 19.48 48.87 19.31 48.75 19.13 48.67 19 48.63 18.93 48.59 18.85 48.53 18.73 48.46 18.57 48.38 18.42 48.34 18.28 48.34 18.16 48.34 18.05 48.35 17.91 48.37 17.75 48.39 17.6 48.44 17.44 48.52 17.28 48.52 17.09 48.52 16.97 48.54 16.93 48.56 16.89 48.48 16.8 48.28 16.64 48.28 16.64 48.05 16.46 48.05 16.46 47.03 15.45 46.41 14.2 46.17 12.71 46.17 12.68 46.15 12.56 46.11 12.36 46.07 12.17 46.05 12.05 46.05 12.01 46.05 11.97 46.05 11.88 46.05 11.75 46.05 11.61 46.08 11.51 46.14 11.45 46.2 11.4 46.29 11.34 46.41 11.28 46.52 11.22 46.68 11.17 46.87 11.13 47.23 11.09 47.27 10.9 46.99 10.55 46.91 10.47 46.87 10.41 46.87 10.37 46.02 8.61 45.94 6.78 46.64 4.86 46.87 4.2 47.12 3.85 47.37 3.81 47.63 3.77 47.99 4 48.46 4.51 51 7.29 53.98 9.04 57.42 9.78 58.01 9.9 58.42 9.89 58.65 9.76 58.89 9.62 59.02 9.26 59.06 8.67 59.41 6.25 60.57 4.47 62.52 3.34 64.47 2.21 66.41 2.21 68.32 3.34 69.96 4.28 71.5 4.28 72.95 3.34 73.46 3.1 73.83 3.1 74.06 3.34 74.26 3.54 74.22 3.89 73.95 4.39 73.91 4.55 73.83 4.75 73.71 4.98 73.59 5.21 73.52 5.39 73.48 5.51 73.63 5.66 73.85 5.68 74.12 5.57 74.24 5.53 74.32 5.51 74.36 5.51 74.36 5.51 74.36 5.51 74.36 5.51 74.98 5.51 75.16 5.78 74.88 6.33 74.88 6.33 74.88 6.33 74.88 6.33Z" fill="rgb(255,255,255)"/></g></svg>