<?xml version="1.0" encoding="utf-8"?>
<svg xmlns="http://www.w3.org/2000/svg"
	xmlns:xlink="http://www.w3.org/1999/xlink"
	width="31px" height="26px" viewBox="0 0 31 26">
<path fillRule="evenodd" d="M 30.88 4.33C 30.57 4.95 30.28 5.38 30 5.62 29.46 5.97 29.04 6.43 28.74 6.99 28.45 7.56 28.26 8.07 28.16 8.52 28.06 8.97 27.97 9.56 27.89 10.3 27.5 13.94 26.07 17.16 23.59 19.97 21.11 22.78 18.09 24.58 14.54 25.36 9.96 26.38 5.75 25.71 1.88 23.37 1.84 23.33 1.73 23.27 1.56 23.2 1.38 23.12 1.27 23.06 1.23 23.02 1.19 22.98 1.13 22.89 1.03 22.76 0.93 22.62 0.94 22.49 1.06 22.37 1.1 22.22 1.17 22.11 1.26 22.05 1.36 21.99 1.46 21.97 1.56 21.99 1.65 22.01 1.77 22.03 1.91 22.05 2.04 22.07 2.15 22.08 2.23 22.08 4.5 22.32 6.29 22.16 7.62 21.61 8.21 21.46 8.56 21.55 8.68 21.91 8.75 22.26 8.52 22.51 7.97 22.67 7.62 22.78 7.1 22.93 6.42 23.11 5.74 23.28 5.2 23.43 4.81 23.55 7.04 24.45 9.16 24.84 11.2 24.72 15.49 24.48 19.01 23.01 21.74 20.29 24.48 17.58 26.16 14.33 26.78 10.54 26.86 10.15 26.9 9.87 26.9 9.72 26.9 9.64 26.9 9.45 26.9 9.13 26.9 8.82 26.9 8.61 26.9 8.52 26.9 8.42 26.91 8.22 26.93 7.93 26.95 7.64 26.99 7.43 27.04 7.32 27.1 7.2 27.17 7.03 27.25 6.82 27.33 6.6 27.43 6.44 27.57 6.32 27.71 6.2 27.87 6.08 28.07 5.94 28.27 5.8 28.48 5.68 28.71 5.56 28.64 5.52 28.56 5.46 28.48 5.38 28.48 5.38 28.36 5.32 28.36 5.32 28.25 5.32 28.06 5.36 27.81 5.44 27.55 5.52 27.34 5.55 27.16 5.53 26.99 5.51 26.84 5.38 26.72 5.15 26.61 4.91 26.6 4.73 26.69 4.59 26.79 4.46 26.96 4.32 27.19 4.18 27.43 4.04 27.58 3.94 27.66 3.86 27.66 3.86 28.01 3.33 28.01 3.33 28.01 3.33 27.84 3.16 27.84 3.16 26.7 3.62 25.53 3.43 24.32 2.57 22.64 1.44 20.89 1.36 19.08 2.34 17.26 3.31 16.31 4.84 16.23 6.91 16.16 8.12 16.02 8.81 15.82 8.99 15.63 9.16 14.91 9.13 13.66 8.9 10.26 8.31 6.98 6.55 3.81 3.62 3.3 4.41 3.16 5.34 3.37 6.44 3.59 7.53 4.09 8.51 4.87 9.37 4.94 9.45 5.1 9.55 5.34 9.69 5.57 9.83 5.71 9.94 5.75 10.04 5.78 10.14 5.78 10.32 5.75 10.6 5.63 10.83 5.48 10.97 5.31 11.01 5.13 11.05 4.9 11.02 4.6 10.92 4.31 10.82 4.11 10.77 3.99 10.77 3.75 10.69 3.54 10.64 3.34 10.6 3.7 12.63 4.79 14.05 6.62 14.87 6.62 14.87 7.09 14.99 7.09 14.99 7.45 15.07 7.66 15.17 7.74 15.28 7.82 15.4 7.84 15.56 7.8 15.75 7.72 16.1 7.21 16.32 6.27 16.4 6.27 16.4 5.69 16.52 5.69 16.52 6.39 17.96 7.58 18.9 9.26 19.33 9.26 19.33 9.67 19.33 9.67 19.33 9.71 19.33 9.83 19.35 10.02 19.39 10.22 19.43 10.35 19.46 10.43 19.5 10.51 19.54 10.59 19.61 10.67 19.71 10.75 19.81 10.77 19.95 10.73 20.15 10.65 20.58 10.24 20.7 9.5 20.5 7.54 20.15 6.08 19.19 5.1 17.63 5.06 17.59 4.98 17.48 4.87 17.31 4.75 17.13 4.67 17 4.63 16.93 4.59 16.85 4.53 16.73 4.46 16.57 4.38 16.42 4.34 16.28 4.34 16.16 4.34 16.05 4.35 15.91 4.37 15.75 4.39 15.6 4.44 15.44 4.52 15.28 4.52 15.09 4.52 14.97 4.54 14.93 4.56 14.89 4.48 14.8 4.28 14.64 4.28 14.64 4.05 14.46 4.05 14.46 3.03 13.45 2.41 12.2 2.17 10.71 2.17 10.68 2.15 10.56 2.11 10.36 2.07 10.17 2.05 10.05 2.05 10.01 2.05 9.97 2.05 9.88 2.05 9.75 2.05 9.61 2.08 9.51 2.14 9.45 2.2 9.4 2.29 9.34 2.41 9.28 2.52 9.22 2.68 9.17 2.87 9.13 3.23 9.09 3.27 8.9 2.99 8.55 2.91 8.47 2.87 8.41 2.87 8.37 2.02 6.61 1.94 4.78 2.64 2.86 2.87 2.2 3.12 1.85 3.37 1.81 3.63 1.77 3.99 2 4.46 2.51 7 5.29 9.98 7.04 13.42 7.78 14.01 7.9 14.42 7.89 14.65 7.76 14.89 7.62 15.02 7.26 15.06 6.67 15.41 4.25 16.57 2.47 18.52 1.34 20.47 0.21 22.41 0.21 24.32 1.34 25.96 2.28 27.5 2.28 28.95 1.34 29.46 1.1 29.83 1.1 30.06 1.34 30.26 1.54 30.22 1.89 29.95 2.39 29.91 2.55 29.83 2.75 29.71 2.98 29.59 3.21 29.52 3.39 29.48 3.51 29.63 3.66 29.85 3.68 30.12 3.57 30.24 3.53 30.32 3.51 30.36 3.51 30.36 3.51 30.36 3.51 30.36 3.51 30.98 3.51 31.16 3.78 30.88 4.33 30.88 4.33 30.88 4.33 30.88 4.33Z" fill="rgb(255,255,255)"/></svg>