<?xml version="1.0" encoding="utf-8"?>
<svg xmlns="http://www.w3.org/2000/svg"
	xmlns:xlink="http://www.w3.org/1999/xlink"
	width="360px" height="3px" viewBox="0 0 360 3">
<path fillRule="evenodd" d="M-0 3C-0 3-0-0-0-0-0-0 90-0 90-0 90-0 90 3 90 3 90 3-0 3-0 3Z" fill="rgb(251,95,69)"/><path fillRule="evenodd" d="M 90 3C 90 3 90-0 90-0 90-0 180-0 180-0 180-0 180 3 180 3 180 3 90 3 90 3Z" fill="rgb(55,197,149)"/><path fillRule="evenodd" d="M 180 3C 180 3 180-0 180-0 180-0 270-0 270-0 270-0 270 3 270 3 270 3 180 3 180 3Z" fill="rgb(177,123,245)"/><path fillRule="evenodd" d="M 270 3C 270 3 270-0 270-0 270-0 360-0 360-0 360-0 360 3 360 3 360 3 270 3 270 3Z" fill="rgb(253,185,95)"/></svg>