<?xml version="1.0" encoding="utf-8"?>
<svg xmlns="http://www.w3.org/2000/svg"
	xmlns:xlink="http://www.w3.org/1999/xlink"
	width="36px" height="36px" viewBox="0 0 36 36">
<path fillRule="evenodd" d="M 35.97 5.97C 35.97 7.48 35.45 8.76 34.41 9.8 33.36 10.84 32.11 11.36 30.66 11.36 28.62 11.36 27.09 10.47 26.05 8.7 26.05 8.7 10.5 15.27 10.5 15.27 10.6 15.79 10.66 16.25 10.66 16.67 10.66 17.56 10.45 18.42 10.03 19.25 10.03 19.25 20.03 26.44 20.03 26.44 21.12 25.24 22.45 24.64 24.02 24.64 25.47 24.64 26.72 25.17 27.77 26.24 28.81 27.31 29.33 28.57 29.33 30.03 29.33 31.49 28.81 32.74 27.77 33.78 26.72 34.82 25.47 35.34 24.02 35.34 22.56 35.34 21.31 34.82 20.27 33.78 19.22 32.74 18.7 31.49 18.7 30.03 18.7 29.04 18.89 28.21 19.25 27.53 19.25 27.53 9.25 20.26 9.25 20.26 8.21 21.41 6.91 21.98 5.34 21.98 3.89 21.98 2.63 21.48 1.59 20.46 0.55 19.44 0.03 18.18 0.03 16.67 0.03 15.16 0.55 13.9 1.59 12.88 2.63 11.87 3.89 11.36 5.34 11.36 7.43 11.36 8.96 12.25 9.95 14.02 9.95 14.02 25.58 7.45 25.58 7.45 25.42 6.98 25.34 6.49 25.34 5.97 25.34 4.51 25.86 3.26 26.91 2.22 27.95 1.18 29.2 0.66 30.66 0.66 32.11 0.66 33.36 1.18 34.41 2.22 35.45 3.26 35.97 4.51 35.97 5.97 35.97 5.97 35.97 5.97 35.97 5.97ZM 20.03 30.03C 20.03 31.12 20.42 32.06 21.2 32.84 21.98 33.62 22.92 34.02 24.02 34.02 25.11 34.02 26.05 33.62 26.83 32.84 27.61 32.06 28 31.12 28 30.03 28 28.89 27.61 27.92 26.83 27.14 26.05 26.36 25.11 25.97 24.02 25.97 22.92 25.97 21.98 26.36 21.2 27.14 20.42 27.92 20.03 28.89 20.03 30.03 20.03 30.03 20.03 30.03 20.03 30.03ZM 9.33 16.67C 9.33 15.58 8.94 14.64 8.16 13.86 7.37 13.08 6.44 12.69 5.34 12.69 4.25 12.69 3.31 13.08 2.53 13.86 1.75 14.64 1.36 15.58 1.36 16.67 1.36 17.77 1.75 18.7 2.53 19.48 3.31 20.26 4.25 20.66 5.34 20.66 6.44 20.66 7.37 20.26 8.16 19.48 8.94 18.7 9.33 17.77 9.33 16.67ZM 34.64 5.97C 34.64 4.87 34.25 3.94 33.47 3.16 32.69 2.37 31.75 1.98 30.66 1.98 29.56 1.98 28.62 2.37 27.84 3.16 27.06 3.94 26.67 4.87 26.67 5.97 26.67 7.11 27.06 8.08 27.84 8.86 28.62 9.64 29.56 10.03 30.66 10.03 31.75 10.03 32.69 9.64 33.47 8.86 34.25 8.08 34.64 7.11 34.64 5.97 34.64 5.97 34.64 5.97 34.64 5.97Z" fill="rgb(251,95,69)"/></svg>